<?xml version="1.0" encoding="UTF-8"?>
<svg id="Logo" xmlns="http://www.w3.org/2000/svg" viewBox="0 0 1200 600">
  <defs>
    <style>
      .cls-1 {
        fill: #fff;
      }
    </style>
  </defs>
  <path class="cls-1" d="m702.73,177.77c-6.79,0-13.38,2.47-13.38,8.23v53.73h-46.32v-53.73c0-5.76-6.59-8.23-13.38-8.23s-13.38,2.47-13.38,8.23v133.82c0,5.55,6.79,8.44,13.38,8.44s13.38-2.89,13.38-8.44v-59.08h46.32v59.08c0,5.55,6.79,8.44,13.38,8.44s13.38-2.89,13.38-8.44v-133.82c0-5.76-6.59-8.23-13.38-8.23Z"/>
  <path class="cls-1" d="m413.01,201.23h-22.65v43.84h22.65c13.38,0,22.03-5.55,22.03-21.82s-8.64-22.03-22.03-22.03Z"/>
  <path class="cls-1" d="m806.88,185.6c-1.85-6.17-9.68-9.06-17.29-9.06s-15.23,2.89-17.08,9.06l-39.73,129.48c-.21.83-.41,1.64-.41,2.06,0,6.59,9.66,11.12,16.87,11.12,4.53,0,8.02-1.45,9.06-5.36l7.81-27.39h47.15l7.83,27.39c1.04,3.92,4.53,5.36,9.06,5.36h0c7.19,0,16.87-4.74,16.87-11.12,0-.62-.21-1.23-.41-2.06l-39.73-129.48Zm-35.18,88.92l17.91-63.19,17.91,63.19h-35.82Z"/>
  <path class="cls-1" d="m547.95,201.21c19.55,0,20.99,14,21.4,20.38.21,6.17,5.76,8.44,13.38,8.44,9.06,0,13.38-2.47,13.38-13.17,0-23.88-20.38-39.11-49-39.11-25.93,0-47.54,12.78-47.54,47.15v57.43c0,34.39,21.4,47.15,47.34,47.15,28.82,0,49.2-15.84,49.2-40.75,0-10.49-4.32-13.17-13.59-13.17-7,0-12.76,2.06-13.17,8.44-.61,8.64-2.26,22.03-20.99,22.03v-.03c-14.21,0-22.03-7.61-22.03-23.67v-57.43c0-16.04,7.81-23.67,21.61-23.67Z"/>
  <path class="cls-1" d="m982.78,131.11H217.23c-15.78,0-28.56,12.78-28.56,28.56v187.81c0,15.78,12.76,28.56,28.56,28.56h671.36l66.52,85.61c4.34,5.58,8.27,8.37,11.1,8.37s4.58-2.76,4.59-8.29l-.12-84.57v-1.11h12.1c15.76,0,28.56-12.78,28.56-28.56v-187.81c0-15.76-12.78-28.56-28.56-28.56Zm-635.85,59.83l-39.52,129.48c-1.85,6.17-9.47,9.06-17.29,9.06s-15.23-2.89-17.29-9.06l-39.73-129.48c-.21-.83-.41-1.64-.41-2.06,0-6.59,9.68-11.12,16.87-11.12,4.53,0,8.02,1.44,9.06,5.36l31.5,111.56,31.29-111.56c1.04-3.91,4.53-5.36,9.06-5.36,7.21,0,16.87,4.74,16.87,11.12,0,.62-.21,1.23-.41,2.06Zm99.2,138.35c-3.7,0-7.21-2.26-9.27-6.38l-29.24-56.81h-17.29v53.73c0,5.55-6.59,8.44-13.38,8.44s-13.38-2.89-13.38-8.44v-133.83h.02c0-4.32,3.49-8.23,8.64-8.23h40.75c26.97,0,48.79,10.29,48.79,43.03,0,23.67-11.53,36.43-26.97,41.16l26.97,50.02c.83,1.04,1.02,2.47,1.02,3.3,0,6.79-8.85,14-16.67,14Zm521.18-15.96c0,15.77-12.78,28.56-28.56,28.56h-432.7c-15.77,0-28.56-12.78-28.56-28.56v-120.64c0-15.77,12.78-28.56,28.56-28.56h432.7c15.77,0,28.56,12.78,28.56,28.56v120.64Z"/>
  <path class="cls-1" d="m936.77,177.77h-87.07c-5.76,0-8.44,6.19-8.44,11.95,0,6.57,3.09,12.14,8.44,12.14h30.26v117.94c0,5.55,6.79,8.44,13.38,8.44s13.38-2.89,13.38-8.44v-117.94h30.05c5.34,0,8.44-5.76,8.44-12.14,0-5.77-2.68-11.95-8.44-11.95Z"/>
  <path d="m982.78,113.33H217.23c-24.93,0-45.23,20.29-45.23,45.23v188.9c0,24.95,20.3,45.23,45.23,45.23h663.19l61.54,79.17c7.64,9.82,15.79,14.79,24.25,14.79,5.46,0,10.55-2.11,14.38-5.94,4.56-4.59,6.87-11,6.86-19.11l-.08-69.16c22.78-2.31,40.64-21.6,40.64-45v-188.89c0-24.96-20.29-45.23-45.22-45.23Zm28.56,234.14c0,15.78-12.8,28.56-28.56,28.56h-12.1v1.11l.12,84.57c-.02,5.53-1.76,8.29-4.59,8.29s-6.76-2.8-11.1-8.37l-66.52-85.61H217.23c-15.79,0-28.56-12.78-28.56-28.56v-187.81c0-15.78,12.78-28.56,28.56-28.56h765.55c15.78,0,28.56,12.8,28.56,28.56v187.81Z"/>
  <path d="m330.47,177.77c-4.53,0-8.02,1.45-9.06,5.36l-31.29,111.56-31.5-111.56c-1.04-3.92-4.53-5.36-9.06-5.36-7.19,0-16.87,4.53-16.87,11.12,0,.41.21,1.23.41,2.06l39.73,129.48c2.06,6.17,9.47,9.06,17.29,9.06s15.44-2.89,17.29-9.06l39.52-129.48c.21-.83.41-1.43.41-2.06,0-6.38-9.66-11.12-16.87-11.12Z"/>
  <path d="m434.81,261.96c15.44-4.74,26.97-17.5,26.97-41.16,0-32.75-21.82-43.03-48.79-43.03h-40.75c-5.15,0-8.64,3.91-8.64,8.23h-.02v133.83c0,5.55,6.59,8.44,13.38,8.44s13.38-2.89,13.38-8.44v-53.73h17.29l29.24,56.81c2.06,4.11,5.57,6.38,9.27,6.38,7.81,0,16.67-7.21,16.67-14,0-.83-.19-2.26-1.02-3.3l-26.97-50.02Zm-21.8-16.89h-22.65v-43.84h22.65c13.38,0,22.03,5.76,22.03,22.03s-8.64,21.82-22.03,21.82Z"/>
  <polygon points="771.7 274.52 807.52 274.52 789.61 211.33 771.7 274.52"/>
  <path d="m938.76,164.13h-432.7c-15.78,0-28.56,12.79-28.56,28.56v120.64c0,15.78,12.79,28.56,28.56,28.56h432.7c15.78,0,28.56-12.79,28.56-28.56v-120.64c0-15.78-12.79-28.56-28.56-28.56Zm-390.4,141.85v.03c18.72,0,20.38-13.38,20.99-22.03.41-6.38,6.17-8.44,13.17-8.44,9.27,0,13.59,2.68,13.59,13.17,0,24.91-20.38,40.75-49.2,40.75-25.93,0-47.34-12.76-47.34-47.15v-57.43c0-34.37,21.61-47.15,47.54-47.15,28.61,0,49,15.23,49,39.11,0,10.7-4.32,13.17-13.38,13.17-7.62,0-13.17-2.26-13.38-8.44-.41-6.38-1.85-20.38-21.4-20.38-13.8,0-21.61,7.62-21.61,23.67v57.43c0,16.06,7.81,23.67,22.03,23.67Zm167.75,13.81v.02c0,5.55-6.79,8.44-13.38,8.44s-13.38-2.89-13.38-8.44v-59.08h-46.32v59.08c0,5.55-6.79,8.44-13.38,8.44s-13.38-2.89-13.38-8.44v-133.82c0-5.76,6.59-8.23,13.38-8.23s13.38,2.47,13.38,8.23v53.73h46.32v-53.73c0-5.76,6.59-8.23,13.38-8.23s13.38,2.47,13.38,8.23v133.8Zm114.04,8.45h0c-4.53,0-8.02-1.43-9.06-5.36l-7.83-27.39h-47.15l-7.81,27.39c-1.04,3.91-4.53,5.36-9.06,5.36-7.21,0-16.87-4.53-16.87-11.12,0-.41.21-1.23.41-2.06l39.73-129.48c1.85-6.17,9.47-9.06,17.08-9.06s15.44,2.89,17.29,9.06l39.73,129.48c.21.83.41,1.43.41,2.06,0,6.38-9.68,11.12-16.87,11.12Zm106.62-126.4h-30.05v117.94c0,5.55-6.79,8.44-13.38,8.44s-13.38-2.89-13.38-8.44v-117.94h-30.26c-5.34,0-8.44-5.57-8.44-12.14,0-5.76,2.68-11.95,8.44-11.95h87.07c5.76,0,8.44,6.17,8.44,11.95,0,6.38-3.09,12.14-8.44,12.14Z"/>
</svg>